<svg xmlns="http://www.w3.org/2000/svg" width="720" height="1280" viewBox="0 0 720 1280">
  <defs>
    <linearGradient id="bg" x1="0" y1="0" x2="1" y2="1">
      <stop offset="0" stop-color="#0b1210"/>
      <stop offset="1" stop-color="#2E8B57"/>
    </linearGradient>
    <radialGradient id="neon" cx="65%" cy="30%" r="70%">
      <stop offset="0" stop-color="#b9fff2" stop-opacity="0.85"/>
      <stop offset="1" stop-color="#b9fff2" stop-opacity="0"/>
    </radialGradient>
    <filter id="shadow" x="-20%" y="-20%" width="140%" height="140%">
      <feDropShadow dx="0" dy="18" stdDeviation="22" flood-color="#000" flood-opacity="0.35"/>
    </filter>
  </defs>
  <rect width="720" height="1280" fill="url(#bg)"/>
  <circle cx="520" cy="260" r="340" fill="url(#neon)"/>
  <g opacity="0.15" stroke="#b9fff2" stroke-width="3">
    <path d="M70 480h580"/>
    <path d="M70 560h580"/>
    <path d="M70 640h580"/>
  </g>
  <g transform="translate(70 160)" filter="url(#shadow)">
    <rect width="580" height="260" rx="56" fill="#ffffff" fill-opacity="0.10" stroke="#ffffff" stroke-opacity="0.18"/>
    <text x="42" y="100" font-family="Inter, system-ui, Segoe UI, Arial" font-size="44" fill="#ffffff" font-weight="900">PLAY</text>
    <text x="42" y="146" font-family="Inter, system-ui, Segoe UI, Arial" font-size="18" fill="#ffffff" opacity="0.78">O‘yin tarzida mantiqiy mashqlar</text>
    <g transform="translate(42 174)">
      <rect width="260" height="72" rx="28" fill="#2E8B57"/>
      <text x="86" y="48" font-family="Inter, system-ui, Segoe UI, Arial" font-size="20" fill="#ffffff" font-weight="800">Boshlash</text>
      <path d="M206 28l24 10-24 10z" fill="#ffffff"/>
    </g>
  </g>
  <g transform="translate(70 520)" opacity="0.9">
    <rect width="580" height="560" rx="70" fill="#000000" fill-opacity="0.18"/>
    <g transform="translate(80 120)">
      <rect x="0" y="0" width="420" height="120" rx="40" fill="#ffffff" fill-opacity="0.10"/>
      <text x="34" y="74" font-family="Inter, system-ui, Segoe UI, Arial" font-size="34" fill="#ffffff" font-weight="900">MATH GAME</text>
    </g>
    <g transform="translate(80 290)">
      <rect x="0" y="0" width="520" height="80" rx="30" fill="#ffffff" fill-opacity="0.08"/>
      <rect x="0" y="110" width="520" height="80" rx="30" fill="#ffffff" fill-opacity="0.08"/>
      <rect x="0" y="220" width="520" height="80" rx="30" fill="#ffffff" fill-opacity="0.08"/>
    </g>
  </g>
</svg>