<svg xmlns="http://www.w3.org/2000/svg" width="720" height="1280" viewBox="0 0 720 1280">
  <defs>
    <linearGradient id="bg" x1="0" y1="0" x2="1" y2="1">
      <stop offset="0" stop-color="#e8fff7"/>
      <stop offset="1" stop-color="#c8e6ff"/>
    </linearGradient>
    <linearGradient id="card" x1="0" y1="0" x2="1" y2="1">
      <stop offset="0" stop-color="#ffffff" stop-opacity="0.25"/>
      <stop offset="1" stop-color="#ffffff" stop-opacity="0.08"/>
    </linearGradient>
  </defs>
  <rect width="720" height="1280" fill="url(#bg)"/>
  <g opacity="0.20" fill="#2E8B57">
    <circle cx="120" cy="220" r="120"/>
    <circle cx="620" cy="340" r="160"/>
    <circle cx="540" cy="1040" r="220"/>
  </g>
  <g transform="translate(70 140)">
    <rect width="580" height="240" rx="46" fill="url(#card)" stroke="#ffffff" stroke-opacity="0.25"/>
    <text x="36" y="88" font-family="Inter, system-ui, Segoe UI, Arial" font-size="44" fill="#083122" font-weight="900">EXAM</text>
    <text x="36" y="136" font-family="Inter, system-ui, Segoe UI, Arial" font-size="18" fill="#083122" opacity="0.75">Imtihon rejimi: vaqt, ball, natija</text>
    <g transform="translate(36 162)" opacity="0.78" fill="#083122">
      <rect x="0" y="0" width="160" height="44" rx="18"/>
      <rect x="180" y="0" width="110" height="44" rx="18"/>
      <rect x="310" y="0" width="220" height="44" rx="18"/>
    </g>
  </g>
  <g transform="translate(70 440)">
    <rect width="580" height="520" rx="54" fill="#0b2b1e" fill-opacity="0.16"/>
    <g transform="translate(44 64)">
      <text x="0" y="0" font-family="ui-monospace, SFMono-Regular, Menlo, Consolas, monospace" font-size="26" fill="#0b2b1e" opacity="0.65">1) 2x + 7 = 19</text>
      <text x="0" y="60" font-family="ui-monospace, SFMono-Regular, Menlo, Consolas, monospace" font-size="26" fill="#0b2b1e" opacity="0.55">2) 3(x-2) = 12</text>
      <text x="0" y="120" font-family="ui-monospace, SFMono-Regular, Menlo, Consolas, monospace" font-size="26" fill="#0b2b1e" opacity="0.45">3) x² - 5x + 6 = 0</text>
      <text x="0" y="180" font-family="ui-monospace, SFMono-Regular, Menlo, Consolas, monospace" font-size="26" fill="#0b2b1e" opacity="0.35">4) lim x→0 (sin x)/x</text>
    </g>
    <g transform="translate(44 380)">
      <rect width="240" height="76" rx="26" fill="#2E8B57"/>
      <text x="72" y="50" font-family="Inter, system-ui, Segoe UI, Arial" font-size="20" fill="#ffffff" font-weight="800">Boshlash</text>
      <path d="M180 28l24 10-24 10z" fill="#ffffff"/>
    </g>
  </g>
</svg>