<svg xmlns="http://www.w3.org/2000/svg" width="720" height="1280" viewBox="0 0 720 1280">
  <defs>
    <linearGradient id="bg" x1="0" y1="0" x2="1" y2="1">
      <stop offset="0" stop-color="#0f2c20"/>
      <stop offset="1" stop-color="#a8fff1"/>
    </linearGradient>
    <radialGradient id="glow" cx="28%" cy="20%" r="70%">
      <stop offset="0" stop-color="#ffffff" stop-opacity="0.85"/>
      <stop offset="1" stop-color="#ffffff" stop-opacity="0"/>
    </radialGradient>
    <filter id="blur" x="-20%" y="-20%" width="140%" height="140%">
      <feGaussianBlur stdDeviation="14"/>
    </filter>
  </defs>
  <rect width="720" height="1280" fill="url(#bg)"/>
  <circle cx="220" cy="200" r="260" fill="url(#glow)"/>
  <g opacity="0.18" fill="#083c2a">
    <path d="M0 930c160-120 320-120 480 0s240 120 240 0v350H0z"/>
  </g>
  <g opacity="0.16" stroke="#0b3c2a" stroke-width="3">
    <path d="M90 560c160-110 380-110 540 0" fill="none"/>
    <path d="M150 720c130-90 290-90 420 0" fill="none"/>
  </g>
  <g transform="translate(70 120)">
    <rect x="0" y="0" width="580" height="94" rx="32" fill="#ffffff" fill-opacity="0.12" stroke="#ffffff" stroke-opacity="0.22"/>
    <text x="34" y="62" font-family="Inter, system-ui, Segoe UI, Arial" font-size="28" fill="#053a28" fill-opacity="0.85" font-weight="700">ONLINE CHALLENGE</text>
    <text x="34" y="86" font-family="Inter, system-ui, Segoe UI, Arial" font-size="16" fill="#053a28" fill-opacity="0.7">Kunlik / haftalik jonli masalalar</text>
  </g>
  <g transform="translate(70 285)">
    <text x="0" y="0" font-family="ui-monospace, SFMono-Regular, Menlo, Consolas, monospace" font-size="34" fill="#0b3c2a" opacity="0.55">x² + y² = r²</text>
    <text x="0" y="70" font-family="ui-monospace, SFMono-Regular, Menlo, Consolas, monospace" font-size="30" fill="#0b3c2a" opacity="0.45">sin(θ) · cos(θ)</text>
    <text x="0" y="140" font-family="ui-monospace, SFMono-Regular, Menlo, Consolas, monospace" font-size="28" fill="#0b3c2a" opacity="0.38">∫ (2x) dx = x² + C</text>
  </g>
  <g transform="translate(70 920)">
    <rect x="0" y="0" width="580" height="260" rx="44" fill="#071e15" fill-opacity="0.28"/>
    <g filter="url(#blur)" opacity="0.65">
      <circle cx="520" cy="60" r="86" fill="#2E8B57"/>
      <circle cx="70" cy="190" r="92" fill="#b4fff2"/>
    </g>
    <text x="42" y="88" font-family="Inter, system-ui, Segoe UI, Arial" font-size="42" fill="#ffffff" font-weight="800">CHALLENGE</text>
    <text x="42" y="132" font-family="Inter, system-ui, Segoe UI, Arial" font-size="18" fill="#ffffff" opacity="0.85">Top-20 reyting, izohlar, mukofotlar</text>
    <g transform="translate(42 170)">
      <rect width="250" height="70" rx="24" fill="#2E8B57"/>
      <text x="78" y="46" font-family="Inter, system-ui, Segoe UI, Arial" font-size="20" fill="#ffffff" font-weight="700">Boshlash</text>
      <path d="M195 25l20 10-20 10z" fill="#ffffff"/>
    </g>
  </g>
</svg>