<svg xmlns="http://www.w3.org/2000/svg" viewBox="0 0 256 256">
  <defs>
    <radialGradient id="g" cx="50%" cy="30%" r="80%">
      <stop offset="0%" stop-color="#eafff3"/>
      <stop offset="60%" stop-color="#8ff0c2"/>
      <stop offset="100%" stop-color="#1dd067"/>
    </radialGradient>
    <filter id="glow" x="-50%" y="-50%" width="200%" height="200%">
      <feGaussianBlur stdDeviation="10" result="b"/>
      <feMerge><feMergeNode in="b"/><feMergeNode in="SourceGraphic"/></feMerge>
    </filter>
  </defs>
  <!-- Rounded square badge -->
  <rect x="16" y="16" width="224" height="224" rx="36" ry="36" fill="url(#g)" filter="url(#glow)"
        stroke="rgba(0,0,0,.15)" stroke-width="1.5"/>
  <!-- π symbol (explicit path, not text) -->
  <path d="M60 92
           C60 84 66 78 74 78
           L182 78
           C188 78 192 83 192 90
           C192 97 187 102 180 102
           L142 102
           L142 182
           C142 192 134 200 124 200
           C114 200 106 192 106 182
           L106 102
           L86 102
           C79 102 74 98 74 92Z"
        fill="#0b8f4a"/>
  <!-- subtle inner highlight -->
  <path d="M60 92
           C60 84 66 78 74 78
           L182 78
           C186 78 189 80 190 83
           L70 83
           C66 83 62 86 62 90Z"
        fill="#b7f5d5" opacity="0.55"/>
</svg>