<svg xmlns="http://www.w3.org/2000/svg" viewBox="0 0 256 256">
  <defs>
    <radialGradient id="g" cx="50%" cy="35%" r="75%">
      <stop offset="0%" stop-color="#9fffd2"/>
      <stop offset="50%" stop-color="#2de38d"/>
      <stop offset="100%" stop-color="#0ea55a"/>
    </radialGradient>
  </defs>
  <rect x="16" y="16" width="224" height="224" rx="32" fill="url(#g)"/>
  <path d="M76 92h104c9 0 16-7 16-16s-7-16-16-16H60c-9 0-16 7-16 16s7 16 16 16h4c8 41 4 77-8 97-5 8 5 17 13 12 24-14 35-53 29-109zm57 0c7 39 3 74-8 94-5 9 6 18 14 12 24-16 35-56 28-106h-34z" fill="white"/>
</svg>
