<svg xmlns="http://www.w3.org/2000/svg" viewBox="0 0 256 256">
  <defs>
    <filter id="glow" x="-50%" y="-50%" width="200%" height="200%">
      <feGaussianBlur stdDeviation="8" result="coloredBlur"/>
      <feMerge>
        <feMergeNode in="coloredBlur"/>
        <feMergeNode in="SourceGraphic"/>
      </feMerge>
    </filter>
  </defs>
  <!-- Rounded square with gradient -->
  <rect x="20" y="20" rx="40" ry="40" width="216" height="216" 
        fill="url(#grad)" stroke="rgba(0,0,0,0.25)" stroke-width="2" filter="url(#glow)"/>
  <defs>
    <linearGradient id="grad" x1="0" y1="0" x2="1" y2="1">
      <stop offset="0%" stop-color="#eafdf4"/>
      <stop offset="60%" stop-color="#78f2b0"/>
      <stop offset="100%" stop-color="#1dd067"/>
    </linearGradient>
  </defs>
  <!-- Pi symbol -->
  <g transform="translate(40,30)">
    <path d="M30 70h120c10 0 18-8 18-18s-8-18-18-18H30c-10 0-18 8-18 18s8 18 18 18zm36 0v110c0 10 8 18 18 18s18-8 18-18V70H66z" 
          fill="#0f9d58"/>
    <path d="M30 62h120c6 0 10-4 10-10s-4-10-10-10H30c-6 0-10 4-10 10s4 10 10 10z" fill="#0bcf66"/>
  </g>
</svg>